<svg width="32" height="11" viewBox="0 0 32 11" fill="none" xmlns="http://www.w3.org/2000/svg">
<path d="M0.63 9.104L4.102 5.66C4.40067 5.36133 4.662 5.09067 4.886 4.848C5.11933 4.60533 5.31067 4.37667 5.46 4.162C5.61867 3.94733 5.73533 3.742 5.81 3.546C5.88467 3.35 5.922 3.14467 5.922 2.93C5.922 2.37933 5.73067 1.92667 5.348 1.572C4.96533 1.208 4.44267 1.026 3.78 1.026C3.11733 1.026 2.59467 1.208 2.212 1.572C1.82933 1.92667 1.638 2.37933 1.638 2.93H0.63C0.63 2.52867 0.704667 2.15533 0.854 1.81C1.00333 1.46467 1.21333 1.166 1.484 0.913999C1.75467 0.661999 2.086 0.465999 2.478 0.325999C2.87 0.176666 3.304 0.102 3.78 0.102C4.256 0.102 4.69 0.176666 5.082 0.325999C5.474 0.465999 5.80533 0.661999 6.076 0.913999C6.34667 1.166 6.55667 1.46467 6.706 1.81C6.85533 2.15533 6.93 2.52867 6.93 2.93C6.93 3.47133 6.74333 3.99867 6.37 4.512C6.006 5.02533 5.49733 5.59933 4.844 6.234L1.904 9.104H6.93V10H0.63V9.104ZM11.6873 10.098C10.8753 10.098 10.1799 9.89733 9.60127 9.496C9.03193 9.09467 8.65393 8.50667 8.46727 7.732H9.50327C9.67127 8.21733 9.94193 8.58133 10.3153 8.824C10.6886 9.05733 11.1459 9.174 11.6873 9.174C12.3593 9.174 12.8959 8.96867 13.2973 8.558C13.6986 8.138 13.8993 7.55933 13.8993 6.822C13.8993 6.07533 13.6986 5.49667 13.2973 5.086C12.8959 4.67533 12.3593 4.47 11.6873 4.47C11.2113 4.47 10.8053 4.57733 10.4693 4.792C10.1333 5.00667 9.88127 5.24933 9.71327 5.52H8.74727L9.16727 0.199999H14.2773V1.096H10.0633L9.79727 4.344C10.0399 4.092 10.3339 3.896 10.6793 3.756C11.0246 3.616 11.4073 3.546 11.8273 3.546C12.2753 3.546 12.6859 3.62533 13.0593 3.784C13.4419 3.93333 13.7686 4.15267 14.0393 4.442C14.3099 4.722 14.5199 5.06733 14.6693 5.478C14.8279 5.87933 14.9073 6.32733 14.9073 6.822C14.9073 7.31667 14.8279 7.76467 14.6693 8.166C14.5199 8.56733 14.3006 8.91267 14.0113 9.202C13.7313 9.49133 13.3906 9.71533 12.9893 9.874C12.5973 10.0233 12.1633 10.098 11.6873 10.098ZM17.7133 10.098C17.4893 10.098 17.3026 10.028 17.1533 9.888C17.0133 9.73867 16.9433 9.552 16.9433 9.328C16.9433 9.104 17.0133 8.922 17.1533 8.782C17.3026 8.63267 17.4893 8.558 17.7133 8.558C17.9373 8.558 18.1193 8.63267 18.2593 8.782C18.4086 8.922 18.4833 9.104 18.4833 9.328C18.4833 9.552 18.4086 9.73867 18.2593 9.888C18.1193 10.028 17.9373 10.098 17.7133 10.098ZM24.0805 10.098C23.5859 10.098 23.1379 10.0187 22.7365 9.86C22.3445 9.692 22.0085 9.426 21.7285 9.062C21.4485 8.698 21.2339 8.23133 21.0845 7.662C20.9352 7.08333 20.8605 6.37867 20.8605 5.548V4.652C20.8605 3.83067 20.9352 3.13533 21.0845 2.566C21.2432 1.98733 21.4625 1.516 21.7425 1.152C22.0225 0.788 22.3585 0.522 22.7505 0.354C23.1519 0.186 23.5952 0.102 24.0805 0.102C24.5659 0.102 25.0045 0.186 25.3965 0.354C25.7979 0.512666 26.1385 0.773999 26.4185 1.138C26.6985 1.502 26.9132 1.97333 27.0625 2.552C27.2212 3.13067 27.3005 3.83067 27.3005 4.652V5.548C27.3005 6.36933 27.2212 7.06933 27.0625 7.648C26.9132 8.21733 26.6985 8.684 26.4185 9.048C26.1385 9.412 25.7979 9.678 25.3965 9.846C25.0045 10.014 24.5659 10.098 24.0805 10.098ZM24.0805 9.174C24.4165 9.174 24.7199 9.118 24.9905 9.006C25.2705 8.88467 25.5039 8.684 25.6905 8.404C25.8865 8.124 26.0359 7.75067 26.1385 7.284C26.2412 6.81733 26.2925 6.23867 26.2925 5.548V4.652C26.2925 3.96133 26.2412 3.38733 26.1385 2.93C26.0359 2.46333 25.8865 2.09 25.6905 1.81C25.4945 1.53 25.2612 1.32933 24.9905 1.208C24.7199 1.08667 24.4165 1.026 24.0805 1.026C23.7445 1.026 23.4365 1.08667 23.1565 1.208C22.8859 1.32 22.6525 1.516 22.4565 1.796C22.2699 2.076 22.1252 2.44933 22.0225 2.916C21.9199 3.38267 21.8685 3.96133 21.8685 4.652V5.548C21.8685 6.23867 21.9199 6.81733 22.0225 7.284C22.1252 7.74133 22.2745 8.11 22.4705 8.39C22.6665 8.67 22.8999 8.87067 23.1705 8.992C23.4412 9.11333 23.7445 9.174 24.0805 9.174ZM30.8755 1.306L28.7755 2.734V1.642L30.8755 0.199999H31.8555V10H30.8755V1.306Z" fill="#888888"/>
</svg>
