<svg width="55" height="18" viewBox="0 0 55 18" fill="none" xmlns="http://www.w3.org/2000/svg">
<path d="M16.908 14.2563C19.596 14.2563 21.1926 12.1543 21.1926 8.59473C21.1926 7.25439 20.9363 6.12646 20.4456 5.25488C19.7351 3.8999 18.512 3.16748 16.9666 3.16748C14.6668 3.16748 13.0408 4.71289 13.0408 6.88086C13.0408 8.91699 14.5056 10.3965 16.5198 10.3965C17.7576 10.3965 18.761 9.81787 19.259 8.81445H19.281C19.281 8.81445 19.3103 8.81445 19.3176 8.81445C19.3323 8.81445 19.3836 8.81445 19.3836 8.81445C19.3836 11.2314 18.468 12.6743 16.9226 12.6743C16.0144 12.6743 15.3113 12.1763 15.0696 11.3779H13.1873C13.5022 13.1138 14.9744 14.2563 16.908 14.2563ZM16.9739 8.89502C15.7581 8.89502 14.8938 8.03076 14.8938 6.82227C14.8938 5.64307 15.802 4.74219 16.9812 4.74219C18.1604 4.74219 19.0686 5.65771 19.0686 6.85156C19.0686 8.03076 18.1824 8.89502 16.9739 8.89502ZM24.3455 12.8794C25.0413 12.8794 25.5174 12.3813 25.5174 11.7222C25.5174 11.0557 25.0413 10.5649 24.3455 10.5649C23.657 10.5649 23.1736 11.0557 23.1736 11.7222C23.1736 12.3813 23.657 12.8794 24.3455 12.8794ZM24.3455 7.38623C25.0413 7.38623 25.5174 6.89551 25.5174 6.23633C25.5174 5.56982 25.0413 5.0791 24.3455 5.0791C23.657 5.0791 23.1736 5.56982 23.1736 6.23633C23.1736 6.89551 23.657 7.38623 24.3455 7.38623ZM32.6546 14H34.4637V12.0298H35.8919V10.4331H34.4637V3.43115H31.7977C29.93 6.24365 28.4432 8.59473 27.4911 10.3452V12.0298H32.6546V14ZM29.2415 10.3672C30.472 8.19922 31.5706 6.46338 32.5814 4.96924H32.6839V10.4771H29.2415V10.3672ZM40.0555 14H41.9452V3.43115H40.0629L37.3016 5.36475V7.18115L39.931 5.33545H40.0555V14Z" fill="black"/>
</svg>
